<svg xmlns="http://www.w3.org/2000/svg" viewBox="0 0 320 320" width="320" height="320" role="img" aria-label="Nexora avatar amina-hijab">
<defs><linearGradient id="bg" x1="0" x2="1" y1="0" y2="1"><stop stop-color="#06b6d4"/><stop offset=".55" stop-color="#07111f"/><stop offset="1" stop-color="#e0f2fe"/></linearGradient><filter id="glow"><feGaussianBlur stdDeviation="4" result="b"/><feMerge><feMergeNode in="b"/><feMergeNode in="SourceGraphic"/></feMerge></filter></defs>
<path d="M73 284c25-52 146-52 171 0v68H73z" fill="#06b6d4"/><path d="M113 278h86l20 74H93z" fill="#0f172a"/><path d="M103 309h110" stroke="#e0f2fe" stroke-width="5" opacity=".75"/>
<path d="M91 126c15-46 92-55 126-6v104c-40 28-87 26-126 0z" fill="#e5e7eb"/><path d="M111 138c16-34 77-38 97 1v79c-29 23-68 23-97 0z" fill="#f8fafc"/>
<ellipse cx="156" cy="180" rx="58" ry="67" fill="#b86b4e"/>
<path d="M105 166c18-16 40-18 60-8 18-11 41-8 55 8-5-47-99-58-115 0z" fill="#f8fafc" opacity=".12"/>
<circle cx="133" cy="174" r="5" fill="#08111f"/><circle cx="181" cy="174" r="5" fill="#08111f"/>
<path d="M144 204c10 9 29 9 39 0" stroke="#7c2d12" stroke-width="5" fill="none" stroke-linecap="round"/>
<path d="M158 178l-8 19h15" stroke="#9a5a3d" stroke-width="4" fill="none" stroke-linecap="round"/>
<circle cx="212" cy="137" r="8" fill="#38bdf8"/>
<path d="M24 296C86 274 226 275 296 295" stroke="#e0f2fe" stroke-width="8" opacity=".35" filter="url(#glow)"/>
</svg>
