<svg xmlns="http://www.w3.org/2000/svg" viewBox="0 0 320 320" width="320" height="320" role="img" aria-label="Nexora avatar amir-mask">
<defs><linearGradient id="bg" x1="0" x2="1" y1="0" y2="1"><stop stop-color="#020617"/><stop offset=".55" stop-color="#07111f"/><stop offset="1" stop-color="#38bdf8"/></linearGradient><filter id="glow"><feGaussianBlur stdDeviation="4" result="b"/><feMerge><feMergeNode in="b"/><feMergeNode in="SourceGraphic"/></feMerge></filter></defs>
<path d="M73 284c25-52 146-52 171 0v68H73z" fill="#020617"/><path d="M113 278h86l20 74H93z" fill="#0f172a"/><path d="M103 309h110" stroke="#38bdf8" stroke-width="5" opacity=".75"/>
<path d="M95 151c11-58 92-76 129-31 24 29 7 88-56 90-58 2-83-23-73-59z" fill="#172554"/>
<ellipse cx="156" cy="180" rx="58" ry="67" fill="#b86b4e"/>
<path d="M105 166c18-16 40-18 60-8 18-11 41-8 55 8-5-47-99-58-115 0z" fill="#172554" opacity=".95"/>
<circle cx="133" cy="174" r="5" fill="#08111f"/><circle cx="181" cy="174" r="5" fill="#08111f"/>
<path d="M144 204c10 9 29 9 39 0" stroke="#7c2d12" stroke-width="5" fill="none" stroke-linecap="round"/>
<path d="M158 178l-8 19h15" stroke="#9a5a3d" stroke-width="4" fill="none" stroke-linecap="round"/>
<path d="M120 184c20 16 55 16 75 0v31c-23 20-53 20-75 0z" fill="#020617" stroke="#38bdf8" stroke-width="3"/>
<path d="M24 296C86 274 226 275 296 295" stroke="#38bdf8" stroke-width="8" opacity=".35" filter="url(#glow)"/>
</svg>
