<svg xmlns="http://www.w3.org/2000/svg" viewBox="0 0 320 320" width="320" height="320" role="img" aria-label="Nexora avatar hana-buns">
<defs><linearGradient id="bg" x1="0" x2="1" y1="0" y2="1"><stop stop-color="#6d28d9"/><stop offset=".55" stop-color="#07111f"/><stop offset="1" stop-color="#f472b6"/></linearGradient><filter id="glow"><feGaussianBlur stdDeviation="4" result="b"/><feMerge><feMergeNode in="b"/><feMergeNode in="SourceGraphic"/></feMerge></filter></defs>
<path d="M80 284c14-59 138-59 152 0v68H80z" fill="#101827"/><path d="M106 289c28 30 76 30 100 0" fill="none" stroke="#f472b6" stroke-width="8"/><text x="156" y="332" text-anchor="middle" font-family="Arial Black" font-size="42" fill="#f472b6" opacity=".95">N</text>
<circle cx="103" cy="126" r="32" fill="#f8fafc"/><circle cx="203" cy="126" r="32" fill="#f8fafc"/><path d="M111 144c20-42 81-45 105 0 15 30-5 61-53 61s-67-29-52-61z" fill="#f8fafc"/>
<ellipse cx="156" cy="180" rx="58" ry="67" fill="#f7c9a9"/>
<path d="M105 166c18-16 40-18 60-8 18-11 41-8 55 8-5-47-99-58-115 0z" fill="#f8fafc" opacity=".95"/>
<circle cx="133" cy="174" r="5" fill="#08111f"/><circle cx="181" cy="174" r="5" fill="#08111f"/>
<path d="M144 204c10 9 29 9 39 0" stroke="#7c2d12" stroke-width="5" fill="none" stroke-linecap="round"/>
<path d="M158 178l-8 19h15" stroke="#9a5a3d" stroke-width="4" fill="none" stroke-linecap="round"/>
<path d="M220 127c8-17 34-8 25 11-5 11-17 18-25 27-8-9-21-16-25-27-8-19 18-28 25-11z" fill="#f0abfc" opacity=".9"/>
<path d="M24 296C86 274 226 275 296 295" stroke="#f472b6" stroke-width="8" opacity=".35" filter="url(#glow)"/>
</svg>
