<svg xmlns="http://www.w3.org/2000/svg" viewBox="0 0 320 320" width="320" height="320" role="img" aria-label="Nexora avatar kai-headphones">
<defs><linearGradient id="bg" x1="0" x2="1" y1="0" y2="1"><stop stop-color="#a855f7"/><stop offset=".55" stop-color="#07111f"/><stop offset="1" stop-color="#60a5fa"/></linearGradient><filter id="glow"><feGaussianBlur stdDeviation="4" result="b"/><feMerge><feMergeNode in="b"/><feMergeNode in="SourceGraphic"/></feMerge></filter></defs>
<path d="M80 284c14-59 138-59 152 0v68H80z" fill="#101827"/><path d="M106 289c28 30 76 30 100 0" fill="none" stroke="#60a5fa" stroke-width="8"/><text x="156" y="332" text-anchor="middle" font-family="Arial Black" font-size="42" fill="#60a5fa" opacity=".95">N</text>
<circle cx="98" cy="128" r="23" fill="#3b1d11"/><circle cx="116" cy="118" r="23" fill="#3b1d11"/><circle cx="134" cy="128" r="23" fill="#3b1d11"/><circle cx="152" cy="118" r="23" fill="#3b1d11"/><circle cx="170" cy="128" r="23" fill="#3b1d11"/><circle cx="188" cy="118" r="23" fill="#3b1d11"/><circle cx="206" cy="128" r="23" fill="#3b1d11"/><circle cx="224" cy="118" r="23" fill="#3b1d11"/>
<ellipse cx="156" cy="180" rx="58" ry="67" fill="#7c3f27"/>
<path d="M105 166c18-16 40-18 60-8 18-11 41-8 55 8-5-47-99-58-115 0z" fill="#3b1d11" opacity=".95"/>
<circle cx="133" cy="174" r="5" fill="#08111f"/><circle cx="181" cy="174" r="5" fill="#08111f"/>
<path d="M144 204c10 9 29 9 39 0" stroke="#7c2d12" stroke-width="5" fill="none" stroke-linecap="round"/>
<path d="M158 178l-8 19h15" stroke="#9a5a3d" stroke-width="4" fill="none" stroke-linecap="round"/>
<path d="M96 166c3-58 119-58 122 0" fill="none" stroke="#38bdf8" stroke-width="10"/><rect x="82" y="154" width="24" height="48" rx="12" fill="#0ea5e9"/><rect x="207" y="154" width="24" height="48" rx="12" fill="#0ea5e9"/>
<path d="M24 296C86 274 226 275 296 295" stroke="#60a5fa" stroke-width="8" opacity=".35" filter="url(#glow)"/>
</svg>
