<svg xmlns="http://www.w3.org/2000/svg" viewBox="0 0 320 320" width="320" height="320" role="img" aria-label="Nexora avatar leo-shades">
<defs><linearGradient id="bg" x1="0" x2="1" y1="0" y2="1"><stop stop-color="#0f172a"/><stop offset=".55" stop-color="#07111f"/><stop offset="1" stop-color="#a78bfa"/></linearGradient><filter id="glow"><feGaussianBlur stdDeviation="4" result="b"/><feMerge><feMergeNode in="b"/><feMergeNode in="SourceGraphic"/></feMerge></filter></defs>
<path d="M78 284c22-55 137-57 158 0v68H78z" fill="#0f172a"/><path d="M103 281l24 71h58l24-71c-31 24-75 24-106 0z" fill="#0f172a"/><text x="156" y="333" text-anchor="middle" font-family="Arial Black" font-size="38" fill="#a78bfa">N</text>
<path d="M95 151c11-58 92-76 129-31 24 29 7 88-56 90-58 2-83-23-73-59z" fill="#111827"/>
<ellipse cx="156" cy="180" rx="58" ry="67" fill="#c7794b"/>
<path d="M105 166c18-16 40-18 60-8 18-11 41-8 55 8-5-47-99-58-115 0z" fill="#111827" opacity=".95"/>
<circle cx="133" cy="174" r="5" fill="#08111f"/><circle cx="181" cy="174" r="5" fill="#08111f"/>
<path d="M144 204c10 9 29 9 39 0" stroke="#7c2d12" stroke-width="5" fill="none" stroke-linecap="round"/>
<path d="M158 178l-8 19h15" stroke="#9a5a3d" stroke-width="4" fill="none" stroke-linecap="round"/>
<path d="M116 165h82c5 0 8 4 7 9l-5 14c-2 5-6 8-11 8h-64c-6 0-10-3-12-8l-5-14c-2-5 2-9 8-9z" fill="#061021" stroke="#38bdf8" stroke-width="4" opacity=".9"/>
<path d="M24 296C86 274 226 275 296 295" stroke="#a78bfa" stroke-width="8" opacity=".35" filter="url(#glow)"/>
</svg>
