<svg xmlns="http://www.w3.org/2000/svg" viewBox="0 0 320 320" width="320" height="320" role="img" aria-label="Nexora avatar luna-glasses">
<defs><linearGradient id="bg" x1="0" x2="1" y1="0" y2="1"><stop stop-color="#38bdf8"/><stop offset=".55" stop-color="#07111f"/><stop offset="1" stop-color="#f472b6"/></linearGradient><filter id="glow"><feGaussianBlur stdDeviation="4" result="b"/><feMerge><feMergeNode in="b"/><feMergeNode in="SourceGraphic"/></feMerge></filter></defs>
<path d="M78 284c22-55 137-57 158 0v68H78z" fill="#38bdf8"/><path d="M103 281l24 71h58l24-71c-31 24-75 24-106 0z" fill="#0f172a"/><text x="156" y="333" text-anchor="middle" font-family="Arial Black" font-size="38" fill="#f472b6">N</text>
<circle cx="164" cy="118" r="34" fill="#1e1b4b"/><path d="M110 154c12-52 91-64 116-14 14 28-6 64-56 62-50-2-71-18-60-48z" fill="#1e1b4b"/>
<ellipse cx="156" cy="180" rx="58" ry="67" fill="#f7c9a9"/>
<path d="M105 166c18-16 40-18 60-8 18-11 41-8 55 8-5-47-99-58-115 0z" fill="#1e1b4b" opacity=".95"/>
<circle cx="133" cy="174" r="5" fill="#08111f"/><circle cx="181" cy="174" r="5" fill="#08111f"/>
<path d="M144 204c10 9 29 9 39 0" stroke="#7c2d12" stroke-width="5" fill="none" stroke-linecap="round"/>
<path d="M158 178l-8 19h15" stroke="#9a5a3d" stroke-width="4" fill="none" stroke-linecap="round"/>
<circle cx="132" cy="169" r="17" fill="none" stroke="#0f172a" stroke-width="6"/><circle cx="180" cy="169" r="17" fill="none" stroke="#0f172a" stroke-width="6"/><path d="M149 169h14" stroke="#0f172a" stroke-width="5"/>
<path d="M24 296C86 274 226 275 296 295" stroke="#f472b6" stroke-width="8" opacity=".35" filter="url(#glow)"/>
</svg>
