<svg xmlns="http://www.w3.org/2000/svg" viewBox="0 0 320 320" width="320" height="320" role="img" aria-label="Nexora avatar maya-bucket">
<defs><linearGradient id="bg" x1="0" x2="1" y1="0" y2="1"><stop stop-color="#7c3aed"/><stop offset=".55" stop-color="#07111f"/><stop offset="1" stop-color="#a855f7"/></linearGradient><filter id="glow"><feGaussianBlur stdDeviation="4" result="b"/><feMerge><feMergeNode in="b"/><feMergeNode in="SourceGraphic"/></feMerge></filter></defs>
<path d="M74 284c24-52 142-52 166 0v68H74z" fill="#a855f7"/><path d="M105 282h102v70H105z" fill="#171028"/><text x="156" y="332" text-anchor="middle" font-family="Arial Black" font-size="40" fill="#f0abfc">N</text>
<path d="M95 151c11-58 92-76 129-31 24 29 7 88-56 90-58 2-83-23-73-59z" fill="#2d1608"/>
<ellipse cx="156" cy="180" rx="58" ry="67" fill="#b86b4e"/>
<path d="M105 166c18-16 40-18 60-8 18-11 41-8 55 8-5-47-99-58-115 0z" fill="#2d1608" opacity=".95"/>
<circle cx="133" cy="174" r="5" fill="#08111f"/><circle cx="181" cy="174" r="5" fill="#08111f"/>
<path d="M144 204c10 9 29 9 39 0" stroke="#7c2d12" stroke-width="5" fill="none" stroke-linecap="round"/>
<path d="M158 178l-8 19h15" stroke="#9a5a3d" stroke-width="4" fill="none" stroke-linecap="round"/>
<path d="M95 137c18-45 98-53 128-5 3 6 2 12-6 13-44-9-83-9-118 5-8 3-11-5-4-13z" fill="#020617"/><path d="M174 143c36-3 62 4 75 17-25 8-51 5-78-7z" fill="#111827"/>
<path d="M24 296C86 274 226 275 296 295" stroke="#a855f7" stroke-width="8" opacity=".35" filter="url(#glow)"/>
</svg>
