<svg xmlns="http://www.w3.org/2000/svg" viewBox="0 0 320 320" width="320" height="320" role="img" aria-label="Nexora avatar ren-techwear">
<defs><linearGradient id="bg" x1="0" x2="1" y1="0" y2="1"><stop stop-color="#cbd5e1"/><stop offset=".55" stop-color="#07111f"/><stop offset="1" stop-color="#67e8f9"/></linearGradient><filter id="glow"><feGaussianBlur stdDeviation="4" result="b"/><feMerge><feMergeNode in="b"/><feMergeNode in="SourceGraphic"/></feMerge></filter></defs>
<path d="M73 284c25-52 146-52 171 0v68H73z" fill="#cbd5e1"/><path d="M113 278h86l20 74H93z" fill="#0f172a"/><path d="M103 309h110" stroke="#67e8f9" stroke-width="5" opacity=".75"/>
<path d="M105 142c12-46 56-67 106-39 18 10 20 29 6 49-38-17-79-19-112-10z" fill="#111827"/><path d="M105 145c-10 36 7 67 55 69 47 2 75-26 67-66-33 18-85 19-122-3z" fill="#111827" opacity=".35"/>
<ellipse cx="156" cy="180" rx="58" ry="67" fill="#f0b98f"/>
<path d="M105 166c18-16 40-18 60-8 18-11 41-8 55 8-5-47-99-58-115 0z" fill="#111827" opacity=".95"/>
<circle cx="133" cy="174" r="5" fill="#08111f"/><circle cx="181" cy="174" r="5" fill="#08111f"/>
<path d="M144 204c10 9 29 9 39 0" stroke="#7c2d12" stroke-width="5" fill="none" stroke-linecap="round"/>
<path d="M158 178l-8 19h15" stroke="#9a5a3d" stroke-width="4" fill="none" stroke-linecap="round"/>
<path d="M116 165h82c5 0 8 4 7 9l-5 14c-2 5-6 8-11 8h-64c-6 0-10-3-12-8l-5-14c-2-5 2-9 8-9z" fill="#061021" stroke="#38bdf8" stroke-width="4" opacity=".9"/>
<path d="M24 296C86 274 226 275 296 295" stroke="#67e8f9" stroke-width="8" opacity=".35" filter="url(#glow)"/>
</svg>
